<svg width="32" height="32" viewBox="0 0 32 32" fill="none" xmlns="http://www.w3.org/2000/svg">
<path fill-rule="evenodd" clip-rule="evenodd" d="M9.33325 5.33329C8.97963 5.33329 8.64049 5.47377 8.39044 5.72382C8.14039 5.97387 7.99992 6.313 7.99992 6.66663V25.7024L15.3384 21.509C15.7483 21.2747 16.2515 21.2747 16.6614 21.509L23.9999 25.7024V6.66663C23.9999 6.313 23.8594 5.97387 23.6094 5.72382C23.3593 5.47377 23.0202 5.33329 22.6666 5.33329H9.33325ZM6.50482 3.8382C7.25497 3.08805 8.27239 2.66663 9.33325 2.66663H22.6666C23.7274 2.66663 24.7449 3.08805 25.495 3.8382C26.2452 4.58834 26.6666 5.60576 26.6666 6.66663V28C26.6666 28.4753 26.4136 28.9146 26.0025 29.1532C25.5914 29.3917 25.0844 29.3934 24.6717 29.1576L15.9999 24.2023L7.3281 29.1576C6.91543 29.3934 6.40844 29.3917 5.99735 29.1532C5.58626 28.9146 5.33325 28.4753 5.33325 28V6.66663C5.33325 5.60576 5.75468 4.58834 6.50482 3.8382Z" fill="#0FBDA0"/>
</svg>
