<svg width="22" height="27" viewBox="0 0 22 27" fill="none" xmlns="http://www.w3.org/2000/svg">
<path fill-rule="evenodd" clip-rule="evenodd" d="M4 2.66666C3.64638 2.66666 3.30724 2.80714 3.05719 3.05719C2.80714 3.30724 2.66667 3.64637 2.66667 4V23.0358L10.0051 18.8424C10.415 18.6081 10.9183 18.6081 11.3281 18.8424L18.6667 23.0358V4C18.6667 3.64637 18.5261 3.30724 18.2761 3.05719C18.0261 2.80714 17.6869 2.66666 17.3333 2.66666H4ZM1.17157 1.17157C1.92172 0.42142 2.93914 0 4 0H17.3333C18.3941 0 19.4117 0.42142 20.1618 1.17157C20.912 1.92171 21.3333 2.93913 21.3333 4V25.3334C21.3333 25.8087 21.0804 26.248 20.6693 26.4866C20.2582 26.7251 19.7512 26.7268 19.3384 26.491L10.6666 21.5357L1.99485 26.491C1.58218 26.7268 1.07519 26.7251 0.6641 26.4866C0.25301 26.248 0 25.8087 0 25.3334V4C0 2.93913 0.42143 1.92171 1.17157 1.17157Z" fill="#28408B"/>
</svg>
