<svg width="32" height="32" viewBox="0 0 32 32" fill="none" xmlns="http://www.w3.org/2000/svg">
<path fill-rule="evenodd" clip-rule="evenodd" d="M8.66667 24C8.13623 24 7.62753 24.2107 7.25245 24.5858C6.87738 24.9608 6.66667 25.4695 6.66667 26C6.66667 26.7364 6.06971 27.3333 5.33333 27.3333C4.59695 27.3333 4 26.7364 4 26C4 24.7623 4.49167 23.5753 5.36683 22.7001C6.242 21.825 7.42899 21.3333 8.66667 21.3333H26.6667C27.403 21.3333 28 21.9303 28 22.6666C28 23.403 27.403 24 26.6667 24H8.66667Z" fill="#0FBDA0"/>
<path fill-rule="evenodd" clip-rule="evenodd" d="M8.66667 3.99998C8.13623 3.99998 7.62753 4.21069 7.25245 4.58577C6.87738 4.96084 6.66667 5.46955 6.66667 5.99998V26C6.66667 26.5304 6.87738 27.0391 7.25245 27.4142C7.62753 27.7893 8.13623 28 8.66667 28H25.3333V3.99998H8.66667ZM8.66667 1.33331H26.6667C27.403 1.33331 28 1.93027 28 2.66665V29.3333C28 30.0697 27.403 30.6666 26.6667 30.6666H8.66667C7.42899 30.6666 6.242 30.175 5.36683 29.2998C4.49167 28.4246 4 27.2377 4 26V5.99998C4 4.7623 4.49167 3.57532 5.36683 2.70015C6.242 1.82498 7.42899 1.33331 8.66667 1.33331Z" fill="#0FBDA0"/>
</svg>
