<svg width="24" height="30" viewBox="0 0 24 30" fill="none" xmlns="http://www.w3.org/2000/svg">
<path fill-rule="evenodd" clip-rule="evenodd" d="M4.66667 22.6667C4.13623 22.6667 3.62753 22.8774 3.25245 23.2525C2.87738 23.6275 2.66667 24.1362 2.66667 24.6667C2.66667 25.4031 2.06971 26 1.33333 26C0.59695 26 0 25.4031 0 24.6667C0 23.429 0.49167 22.242 1.36683 21.3668C2.242 20.4917 3.42899 20 4.66667 20H22.6667C23.403 20 24 20.597 24 21.3333C24 22.0697 23.403 22.6667 22.6667 22.6667H4.66667Z" fill="#28408B"/>
<path fill-rule="evenodd" clip-rule="evenodd" d="M4.66667 2.66667C4.13623 2.66667 3.62753 2.87738 3.25245 3.25246C2.87738 3.62753 2.66667 4.13624 2.66667 4.66667V24.6667C2.66667 25.1971 2.87738 25.7058 3.25245 26.0809C3.62753 26.456 4.13623 26.6667 4.66667 26.6667H21.3333V2.66667H4.66667ZM4.66667 0H22.6667C23.403 0 24 0.59696 24 1.33334V28C24 28.7364 23.403 29.3333 22.6667 29.3333H4.66667C3.42899 29.3333 2.242 28.8417 1.36683 27.9665C0.49167 27.0913 0 25.9044 0 24.6667V4.66667C0 3.42899 0.49167 2.24201 1.36683 1.36684C2.242 0.49167 3.42899 0 4.66667 0Z" fill="#28408B"/>
</svg>
