<svg width="32" height="32" viewBox="0 0 32 32" fill="none" xmlns="http://www.w3.org/2000/svg">
<path fill-rule="evenodd" clip-rule="evenodd" d="M2.50482 5.17157C3.25497 4.42143 4.27239 4 5.33325 4H14.6666C15.403 4 15.9999 4.59695 15.9999 5.33333C15.9999 6.06971 15.403 6.66667 14.6666 6.66667H5.33325C4.97963 6.66667 4.64049 6.80714 4.39044 7.05719C4.14039 7.30724 3.99992 7.64638 3.99992 8V26.6667C3.99992 27.0203 4.14039 27.3594 4.39044 27.6095C4.64049 27.8595 4.97963 28 5.33325 28H23.9999C24.3535 28 24.6927 27.8595 24.9427 27.6095C25.1928 27.3594 25.3333 27.0203 25.3333 26.6667V17.3333C25.3333 16.597 25.9302 16 26.6666 16C27.403 16 27.9999 16.597 27.9999 17.3333V26.6667C27.9999 27.7275 27.5785 28.7449 26.8283 29.4951C26.0782 30.2452 25.0608 30.6667 23.9999 30.6667H5.33325C4.27239 30.6667 3.25497 30.2452 2.50482 29.4951C1.75468 28.7449 1.33325 27.7275 1.33325 26.6667V8C1.33325 6.93913 1.75468 5.92172 2.50482 5.17157Z" fill="#0FBDA0"/>
<path fill-rule="evenodd" clip-rule="evenodd" d="M26.6666 3.8383C26.2701 3.8383 25.8898 3.99582 25.6094 4.2762L13.2039 16.6817L12.4991 19.5009L15.3183 18.7961L27.7238 6.39058C28.0042 6.1102 28.1617 5.72991 28.1617 5.33339C28.1617 4.93687 28.0042 4.55659 27.7238 4.2762C27.4434 3.99582 27.0631 3.8383 26.6666 3.8383ZM23.7238 2.39058C24.5043 1.6101 25.5628 1.17163 26.6666 1.17163C27.7704 1.17163 28.8289 1.6101 29.6094 2.39058C30.3899 3.17106 30.8284 4.22962 30.8284 5.33339C30.8284 6.43716 30.3899 7.49572 29.6094 8.2762L16.9428 20.9429C16.7719 21.1137 16.5578 21.235 16.3233 21.2936L10.99 22.6269C10.5356 22.7405 10.055 22.6074 9.7238 22.2762C9.39263 21.945 9.2595 21.4644 9.37309 21.01L10.7064 15.6767C10.765 15.4422 10.8863 15.2281 11.0571 15.0572L23.7238 2.39058Z" fill="#0FBDA0"/>
</svg>
