<svg width="24" height="30" viewBox="0 0 24 30" fill="none" xmlns="http://www.w3.org/2000/svg">
<path fill-rule="evenodd" clip-rule="evenodd" d="M1.17157 1.17158C1.92172 0.42143 2.93913 0 4 0H15.3333C15.687 0 16.0261 0.14048 16.2761 0.39053L23.6095 7.72386C23.8595 7.97391 24 8.31305 24 8.66667V25.3333C24 26.3942 23.5786 27.4116 22.8284 28.1618C22.0783 28.9119 21.0609 29.3333 20 29.3333H4C2.93913 29.3333 1.92172 28.9119 1.17157 28.1618C0.42143 27.4116 0 26.3942 0 25.3333V4C0 2.93914 0.42143 1.92172 1.17157 1.17158ZM4 2.66667C3.64638 2.66667 3.30724 2.80715 3.05719 3.05719C2.80714 3.30724 2.66667 3.64638 2.66667 4V25.3333C2.66667 25.687 2.80714 26.0261 3.05719 26.2762C3.30724 26.5262 3.64638 26.6667 4 26.6667H20C20.3536 26.6667 20.6928 26.5262 20.9428 26.2762C21.1929 26.0261 21.3333 25.687 21.3333 25.3333V9.21899L14.781 2.66667H4Z" fill="#28408B"/>
<path fill-rule="evenodd" clip-rule="evenodd" d="M14.6666 0C15.403 0 15.9999 0.59696 15.9999 1.33334V8H22.6666C23.403 8 23.9999 8.59696 23.9999 9.33329C23.9999 10.0697 23.403 10.6667 22.6666 10.6667H14.6666C13.9302 10.6667 13.3333 10.0697 13.3333 9.33329V1.33334C13.3333 0.59696 13.9302 0 14.6666 0Z" fill="#28408B"/>
</svg>
