<svg width="32" height="32" viewBox="0 0 32 32" fill="none" xmlns="http://www.w3.org/2000/svg">
<path fill-rule="evenodd" clip-rule="evenodd" d="M5.17157 2.50489C5.92172 1.75474 6.93913 1.33331 8 1.33331H19.3333C19.687 1.33331 20.0261 1.47379 20.2761 1.72384L27.6095 9.05717C27.8595 9.30722 28 9.64636 28 9.99998V26.6666C28 27.7275 27.5786 28.7449 26.8284 29.4951C26.0783 30.2452 25.0609 30.6666 24 30.6666H8C6.93913 30.6666 5.92172 30.2452 5.17157 29.4951C4.42143 28.7449 4 27.7275 4 26.6666V5.33331C4 4.27245 4.42143 3.25503 5.17157 2.50489ZM8 3.99998C7.64638 3.99998 7.30724 4.14046 7.05719 4.3905C6.80714 4.64055 6.66667 4.97969 6.66667 5.33331V26.6666C6.66667 27.0203 6.80714 27.3594 7.05719 27.6095C7.30724 27.8595 7.64638 28 8 28H24C24.3536 28 24.6928 27.8595 24.9428 27.6095C25.1929 27.3594 25.3333 27.0203 25.3333 26.6666V10.5523L18.781 3.99998H8Z" fill="#0FBDA0"/>
<path fill-rule="evenodd" clip-rule="evenodd" d="M18.6666 1.33331C19.403 1.33331 19.9999 1.93027 19.9999 2.66665V9.33331H26.6666C27.403 9.33331 27.9999 9.93027 27.9999 10.6666C27.9999 11.403 27.403 12 26.6666 12H18.6666C17.9302 12 17.3333 11.403 17.3333 10.6666V2.66665C17.3333 1.93027 17.9302 1.33331 18.6666 1.33331Z" fill="#0FBDA0"/>
</svg>
