<svg width="32" height="32" viewBox="0 0 32 32" fill="none" xmlns="http://www.w3.org/2000/svg">
<path fill-rule="evenodd" clip-rule="evenodd" d="M13.5666 3.75886C14.3286 4.52388 14.6666 5.56485 14.6666 6.66662V17.3333C14.6666 22.2531 13.2518 25.3651 11.0109 27.1986C8.82109 28.9902 6.10892 29.3333 3.99994 29.3333C3.98301 29.3333 3.96595 29.3333 3.94879 29.3333C3.66124 29.3334 3.34487 29.3335 3.08187 29.3043C2.813 29.2744 2.30424 29.1899 1.89047 28.7761C1.4767 28.3623 1.39214 27.8536 1.36227 27.5847C1.33304 27.3217 1.33316 27.0053 1.33326 26.7178C1.33327 26.7006 1.33328 26.6836 1.33328 26.6666V24.0413C1.33328 24.0244 1.33327 24.0075 1.33327 23.9905C1.33317 23.6947 1.33306 23.374 1.36183 23.1078C1.39091 22.8387 1.47204 22.334 1.87261 21.9179C2.28205 21.4924 2.79208 21.3989 3.07156 21.3656C3.34423 21.3332 3.67015 21.3332 3.96312 21.3333L3.99994 21.3333C4.23297 21.3333 4.5776 21.2034 4.89047 20.8905C5.20334 20.5776 5.33328 20.233 5.33328 20V18.6666C4.2326 18.6666 3.19555 18.3312 2.43213 17.5678C1.66872 16.8044 1.33328 15.7673 1.33328 14.6666V6.62929C1.33328 5.53933 1.67353 4.51167 2.43697 3.756C3.19897 3.00176 4.23281 2.66662 5.33328 2.66662H10.6582C11.7653 2.65356 12.8038 2.99301 13.5666 3.75886ZM11.6773 5.64072C11.5236 5.48649 11.2327 5.32568 10.6848 5.33316L10.6666 5.33341V5.33329H5.33328C4.76708 5.33329 4.46758 5.49815 4.31292 5.65124C4.15969 5.80291 3.99994 6.08992 3.99994 6.62929V14.6666C3.99994 15.2326 4.1645 15.5289 4.31775 15.6821C4.47101 15.8354 4.76729 16 5.33328 16C5.35021 16 5.36727 15.9999 5.38443 15.9999C5.67198 15.9998 5.98835 15.9997 6.25135 16.0289C6.52022 16.0588 7.02898 16.1434 7.44275 16.5571C7.85652 16.9709 7.94108 17.4797 7.97096 17.7485C8.00018 18.0116 8.00006 18.3279 7.99996 18.6155C7.99995 18.6326 7.99994 18.6497 7.99994 18.6666V20C7.99994 21.1003 7.46321 22.089 6.77609 22.7761C6.08896 23.4632 5.10025 24 3.99994 24C3.99994 24.0135 3.99994 24.0273 3.99994 24.0413V26.6666C5.89096 26.6666 7.84546 26.343 9.32229 25.1347C10.7481 23.9681 11.9999 21.7468 11.9999 17.3333V6.66662C11.9999 6.10172 11.8339 5.79803 11.6773 5.64072Z" fill="#0FBDA0"/>
<path fill-rule="evenodd" clip-rule="evenodd" d="M29.566 3.75869C30.328 4.52349 30.6666 5.56437 30.6666 6.66662V17.3333C30.6666 22.2531 29.2518 25.3651 27.0109 27.1986C24.8211 28.9902 22.1089 29.3333 19.9999 29.3333C19.983 29.3333 19.966 29.3333 19.9488 29.3333C19.6612 29.3334 19.3449 29.3335 19.0819 29.3043C18.813 29.2744 18.3042 29.1899 17.8905 28.7761C17.4767 28.3623 17.3921 27.8536 17.3623 27.5847C17.333 27.3217 17.3332 27.0053 17.3333 26.7178C17.3333 26.7006 17.3333 26.6836 17.3333 26.6666V22.6666C17.3333 21.9302 17.9302 21.3333 18.6666 21.3333C19.5551 21.3333 20.0544 21.2007 20.3307 21.0626C20.5643 20.9458 20.6855 20.8042 20.7772 20.5933C20.8892 20.3357 20.9625 19.9542 20.9911 19.3673C21.0023 19.1378 21.0062 18.9036 21.0068 18.6566C20.0289 18.5956 19.1196 18.2552 18.4321 17.5678C17.6687 16.8044 17.3333 15.7673 17.3333 14.6666V6.62929C17.3333 5.53933 17.6735 4.51167 18.437 3.756C19.199 3.00176 20.2328 2.66662 21.3333 2.66662H26.6582C27.7649 2.65356 28.8032 2.99315 29.566 3.75869ZM27.6769 5.64089C27.523 5.48635 27.2318 5.32568 26.6848 5.33316L26.6666 5.33341V5.33329H21.3333C20.7671 5.33329 20.4676 5.49815 20.3129 5.65124C20.1597 5.80291 19.9999 6.08992 19.9999 6.62929V14.6666C19.9999 15.2326 20.1645 15.5289 20.3178 15.6821C20.471 15.8354 20.7673 16 21.3333 16H22.3333C23.0697 16 23.6666 16.5969 23.6666 17.3333C23.6666 17.5248 23.6682 17.7236 23.6699 17.9254C23.6742 18.4537 23.6787 19.0027 23.6546 19.4972C23.6207 20.1915 23.5274 20.9558 23.2227 21.6566C22.8977 22.404 22.3522 23.0333 21.5233 23.4477C21.0713 23.6737 20.5623 23.8224 19.9999 23.9079V26.6666C21.891 26.6666 23.8455 26.343 25.3223 25.1347C26.7481 23.9681 27.9999 21.7468 27.9999 17.3333V6.66662C27.9999 6.1022 27.8339 5.79842 27.6769 5.64089Z" fill="#0FBDA0"/>
</svg>
