<svg width="30" height="27" viewBox="0 0 30 27" fill="none" xmlns="http://www.w3.org/2000/svg">
<path fill-rule="evenodd" clip-rule="evenodd" d="M12.2334 1.0926C12.9954 1.85762 13.3334 2.89859 13.3334 4.00036V14.667C13.3334 19.5868 11.9186 22.6988 9.67765 24.5323C7.48784 26.3239 4.77567 26.667 2.66669 26.667C2.64976 26.667 2.6327 26.667 2.61554 26.667C2.32799 26.6671 2.01162 26.6672 1.74862 26.638C1.47975 26.6081 0.970992 26.5236 0.557222 26.1098C0.143452 25.696 0.0588918 25.1873 0.0290218 24.9184C-0.000208184 24.6554 -8.81225e-05 24.339 1.18775e-05 24.0515C2.18775e-05 24.0343 3.17855e-05 24.0173 3.17855e-05 24.0003V21.375C3.17855e-05 21.3581 2.17719e-05 21.3412 2.17719e-05 21.3242C-7.82281e-05 21.0284 -0.000188185 20.7077 0.0285818 20.4415C0.0576618 20.1724 0.138792 19.6677 0.539362 19.2516C0.948802 18.8261 1.45883 18.7326 1.73831 18.6993C2.01098 18.6669 2.3369 18.6669 2.62987 18.667H2.66669C2.89972 18.667 3.24435 18.5371 3.55722 18.2242C3.87009 17.9113 4.00003 17.5667 4.00003 17.3337V16.0003C2.89935 16.0003 1.8623 15.6649 1.09888 14.9015C0.335472 14.1381 3.17855e-05 13.101 3.17855e-05 12.0003V3.96303C3.17855e-05 2.87307 0.340282 1.84541 1.10372 1.08974C1.86572 0.335502 2.89956 0.000362423 4.00003 0.000362423H9.32495C10.4321 -0.0126976 11.4706 0.326752 12.2334 1.0926ZM10.3441 2.97446C10.1904 2.82023 9.89945 2.65942 9.35155 2.6669L9.33335 2.66715L4.00003 2.66703C3.43383 2.66703 3.13433 2.83189 2.97967 2.98498C2.82644 3.13665 2.66669 3.42366 2.66669 3.96303V12.0003C2.66669 12.5663 2.83125 12.8626 2.9845 13.0158C3.13776 13.1691 3.43404 13.3337 4.00003 13.3337C4.01696 13.3337 4.03402 13.3336 4.05118 13.3336C4.33873 13.3335 4.6551 13.3334 4.9181 13.3626C5.18697 13.3925 5.69573 13.4771 6.1095 13.8908C6.52327 14.3046 6.60783 14.8134 6.63771 15.0822C6.66693 15.3453 6.66681 15.6616 6.66671 15.9492C6.6667 15.9663 6.66669 15.9834 6.66669 16.0003V17.3337C6.66669 18.434 6.12996 19.4227 5.44284 20.1098C4.75571 20.7969 3.767 21.3337 2.66669 21.3337C2.66669 21.3472 2.66669 21.361 2.66669 21.375V24.0003C4.55771 24.0003 6.51221 23.6767 7.98904 22.4684C9.41485 21.3018 10.6667 19.0805 10.6667 14.667V4.00036C10.6667 3.43546 10.5007 3.13177 10.3441 2.97446Z" fill="#28408B"/>
<path fill-rule="evenodd" clip-rule="evenodd" d="M28.2328 1.09243C28.9948 1.85723 29.3334 2.89811 29.3334 4.00036V14.667C29.3334 19.5868 27.9186 22.6988 25.6777 24.5323C23.4879 26.3239 20.7757 26.667 18.6667 26.667C18.6498 26.667 18.6328 26.667 18.6156 26.667C18.328 26.6671 18.0117 26.6672 17.7487 26.638C17.4798 26.6081 16.971 26.5236 16.5573 26.1098C16.1435 25.696 16.0589 25.1873 16.0291 24.9184C15.9998 24.6554 16 24.339 16.0001 24.0515C16.0001 24.0343 16.0001 24.0173 16.0001 24.0003V20.0003C16.0001 19.2639 16.597 18.667 17.3334 18.667C18.2219 18.667 18.7212 18.5344 18.9975 18.3963C19.2311 18.2795 19.3523 18.1379 19.444 17.927C19.556 17.6694 19.6293 17.2879 19.6579 16.701C19.6691 16.4715 19.673 16.2373 19.6736 15.9903C18.6957 15.9293 17.7864 15.5889 17.0989 14.9015C16.3355 14.1381 16.0001 13.101 16.0001 12.0003V3.96303C16.0001 2.87307 16.3403 1.84541 17.1038 1.08974C17.8658 0.335502 18.8996 0.000362283 20.0001 0.000362283H25.325C26.4317 -0.0126977 27.47 0.326892 28.2328 1.09243ZM26.3437 2.97463C26.1898 2.82009 25.8986 2.65942 25.3516 2.6669L25.3334 2.66715L20.0001 2.66703C19.4339 2.66703 19.1344 2.83189 18.9797 2.98498C18.8265 3.13665 18.6667 3.42366 18.6667 3.96303V12.0003C18.6667 12.5663 18.8313 12.8626 18.9846 13.0158C19.1378 13.1691 19.4341 13.3337 20.0001 13.3337H21.0001C21.7365 13.3337 22.3334 13.9306 22.3334 14.667C22.3334 14.8585 22.335 15.0573 22.3367 15.2591C22.341 15.7874 22.3455 16.3364 22.3214 16.8309C22.2875 17.5252 22.1942 18.2895 21.8895 18.9903C21.5645 19.7377 21.019 20.367 20.1901 20.7814C19.7381 21.0074 19.2291 21.1561 18.6667 21.2416V24.0003C20.5578 24.0003 22.5123 23.6767 23.9891 22.4684C25.4149 21.3018 26.6667 19.0805 26.6667 14.667V4.00036C26.6667 3.43594 26.5007 3.13216 26.3437 2.97463Z" fill="#28408B"/>
</svg>
